<?xml version="1.0" encoding="UTF-8" standalone="no"?>
<!-- Generator: Adobe Illustrator 19.0.0, SVG Export Plug-In . SVG Version: 6.00 Build 0)  -->

<svg
   xmlns:dc="http://purl.org/dc/elements/1.1/"
   xmlns:cc="http://creativecommons.org/ns#"
   xmlns:rdf="http://www.w3.org/1999/02/22-rdf-syntax-ns#"
   xmlns:svg="http://www.w3.org/2000/svg"
   xmlns="http://www.w3.org/2000/svg"
   xmlns:sodipodi="http://sodipodi.sourceforge.net/DTD/sodipodi-0.dtd"
   xmlns:inkscape="http://www.inkscape.org/namespaces/inkscape"
   version="1.1"
   id="Capa_1"
   x="0px"
   y="0px"
   viewBox="0 0 409.806 409.806"
   style="enable-background:new 0 0 409.806 409.806;"
   xml:space="preserve"
   sodipodi:docname="cross-white.svg"
   inkscape:version="0.92.4 (5da689c313, 2019-01-14)"><metadata
   id="metadata43"><rdf:RDF><cc:Work
       rdf:about=""><dc:format>image/svg+xml</dc:format><dc:type
         rdf:resource="http://purl.org/dc/dcmitype/StillImage" /><dc:title></dc:title></cc:Work></rdf:RDF></metadata><defs
   id="defs41" /><sodipodi:namedview
   pagecolor="#ffffff"
   bordercolor="#666666"
   borderopacity="1"
   objecttolerance="10"
   gridtolerance="10"
   guidetolerance="10"
   inkscape:pageopacity="0"
   inkscape:pageshadow="2"
   inkscape:window-width="1920"
   inkscape:window-height="1016"
   id="namedview39"
   showgrid="false"
   inkscape:zoom="1.1517645"
   inkscape:cx="-53.111219"
   inkscape:cy="263.29658"
   inkscape:window-x="0"
   inkscape:window-y="27"
   inkscape:window-maximized="1"
   inkscape:current-layer="Capa_1" />
<g
   id="g6">
	<g
   id="g4">
		<path
   d="M 228.929,205.01 C 288.15893,145.51018 347.95125,86.527874 406.82922,26.704172 420.12886,8.4292595 389.82603,-10.93502 378.00516,7.669829 320.26877,65.405886 262.53239,123.14194 204.796,180.878 146.24033,122.322 87.684667,63.766 29.129,5.21 12.337943,-11.962867 -12.266748,18.597146 7.455836,31.801836 65.191891,89.537891 122.92795,147.27395 180.664,205.01 122.10833,263.56567 63.552667,322.12133 4.997,380.677 -12.677146,397.49431 18.359351,422.52425 31.587836,402.35016 89.323891,344.61411 147.05995,286.87805 204.796,229.142 c 58.55567,58.55567 117.11133,117.11133 175.667,175.667 16.79059,17.1727 41.39445,-13.38611 21.67317,-26.59084 C 344.40045,320.4821 286.66472,262.74605 228.929,205.01 Z"
   id="path2"
   inkscape:connector-curvature="0"
   style="fill:#ffffff" />
	</g>
</g>
<g
   id="g8">
</g>
<g
   id="g10">
</g>
<g
   id="g12">
</g>
<g
   id="g14">
</g>
<g
   id="g16">
</g>
<g
   id="g18">
</g>
<g
   id="g20">
</g>
<g
   id="g22">
</g>
<g
   id="g24">
</g>
<g
   id="g26">
</g>
<g
   id="g28">
</g>
<g
   id="g30">
</g>
<g
   id="g32">
</g>
<g
   id="g34">
</g>
<g
   id="g36">
</g>
</svg>