<svg width="30" height="30" viewBox="0 0 30 30" fill="none" xmlns="http://www.w3.org/2000/svg">
<path d="M2.72265 12.584C2.49289 12.7372 2.4308 13.0476 2.58397 13.2774C2.73715 13.5071 3.04759 13.5692 3.27735 13.416L2.72265 12.584ZM26.7227 13.416C26.9524 13.5692 27.2628 13.5071 27.416 13.2774C27.5692 13.0476 27.5071 12.7372 27.2774 12.584L26.7227 13.416ZM15 5L15.2774 4.58397C15.1094 4.47201 14.8906 4.47201 14.7227 4.58397L15 5ZM3.27735 13.416L15.2774 5.41603L14.7227 4.58397L2.72265 12.584L3.27735 13.416ZM14.7227 5.41603L26.7227 13.416L27.2774 12.584L15.2774 4.58397L14.7227 5.41603Z" fill="black"/>
<path d="M7 15V26H23V15" stroke="black" stroke-linecap="round" stroke-linejoin="round"/>
</svg>
