<svg width="90" height="75" viewBox="0 0 90 75" fill="none" xmlns="http://www.w3.org/2000/svg">
<path d="M89.3 9.60001C86.5 10.9 83.3 11.7 80.3 12.2C81.8 12 83.9 9.30001 84.8 8.30001C86.1 6.70001 87.2 4.80001 87.8 2.80001C87.9 2.60001 87.9 2.40001 87.8 2.30001C87.6 2.20001 87.5 2.30001 87.3 2.30001C83.9 4.10001 80.4 5.50001 76.6 6.40001C76.3 6.50001 76.1 6.40001 75.9 6.20001C75.6 5.80001 75.3 5.50001 75 5.20001C73.4 3.90001 71.7 2.80001 69.8 2.00001C67.3 1.00001 64.5 0.500014 61.8 0.700014C59.2 0.900014 56.6 1.60001 54.3 2.80001C52 4.00001 49.9 5.70001 48.2 7.80001C46.5 9.90001 45.2 12.4 44.6 15.1C44 17.7 44 20.2 44.4 22.8C44.5 23.2 44.4 23.3 44 23.2C29.2 21.1 17 15.9 7.09999 4.60001C6.69999 4.10001 6.39999 4.10001 6.09999 4.60001C1.79999 11.1 3.89999 21.5 9.29999 26.7C9.99999 27.4 10.8 28.1 11.6 28.7C11.3 28.8 7.69999 28.4 4.49999 26.7C4.09999 26.4 3.89999 26.6 3.79999 27.1C3.79999 27.8 3.79999 28.4 3.89999 29.2C4.69999 35.8 9.29999 41.9 15.5 44.2C16.2 44.5 17.1 44.8 17.9 44.9C16.5 45.2 15 45.4 10.9 45.1C10.4 45 10.2 45.3 10.4 45.7C13.4 54.1 20 56.6 25 58C25.7 58.1 26.3 58.1 27 58.3C27 58.4 26.9 58.4 26.9 58.4C25.3 60.9 19.6 62.8 16.9 63.7C12.1 65.4 6.79999 66.1 1.69999 65.6C0.899988 65.5 0.699987 65.5 0.499987 65.6C0.299987 65.7 0.499988 65.9 0.699988 66.1C1.69999 66.8 2.79999 67.4 3.89999 68C7.09999 69.7 10.5 71.1 14 72.1C32.2 77.1 52.8 73.4 66.5 59.8C77.2 49.2 81 34.5 81 19.7C81 19.1 81.7 18.8 82.1 18.5C84.9 16.4 87.1 13.9 89.2 11.1C89.7 10.5 89.6 9.90001 89.6 9.70001V9.60001C89.6 9.40001 89.7 9.40001 89.3 9.60001Z" fill="white"/>
</svg>
